<?xml version="1.0" encoding="UTF-8"?>
<svg width="275px" height="198px" viewBox="0 0 275 198" version="1.1" xmlns="http://www.w3.org/2000/svg" xmlns:xlink="http://www.w3.org/1999/xlink">
    <!-- Generator: sketchtool 41.2 (35397) - http://www.bohemiancoding.com/sketch -->
    <title>8C5E20EB-4C0D-45E7-9DF0-98356AB9F6EB</title>
    <desc>Created with sketchtool.</desc>
    <defs>
        <polygon id="path-1" points="5.5 0 11 14.2058824 0 14.2058824"></polygon>
        <mask id="mask-2" maskContentUnits="userSpaceOnUse" maskUnits="objectBoundingBox" x="-2" y="-2" width="15" height="18.2058824">
            <rect x="-2" y="-2" width="15" height="18.2058824" fill="white"></rect>
            <use xlink:href="#path-1" fill="black"></use>
        </mask>
        <polygon id="path-3" points="5.5 0 11 14.2058824 0 14.2058824"></polygon>
        <mask id="mask-4" maskContentUnits="userSpaceOnUse" maskUnits="objectBoundingBox" x="-2" y="-2" width="15" height="18.2058824">
            <rect x="-2" y="-2" width="15" height="18.2058824" fill="white"></rect>
            <use xlink:href="#path-3" fill="black"></use>
        </mask>
        <polygon id="path-5" points="5 0 10 12.8529412 0 12.8529412"></polygon>
        <mask id="mask-6" maskContentUnits="userSpaceOnUse" maskUnits="objectBoundingBox" x="-2" y="-2" width="14" height="16.8529412">
            <rect x="-2" y="-2" width="14" height="16.8529412" fill="white"></rect>
            <use xlink:href="#path-5" fill="black"></use>
        </mask>
        <polygon id="path-7" points="7 0 14 18.9411765 0 18.9411765"></polygon>
        <mask id="mask-8" maskContentUnits="userSpaceOnUse" maskUnits="objectBoundingBox" x="-2" y="-2" width="18" height="22.9411765">
            <rect x="-2" y="-2" width="18" height="22.9411765" fill="white"></rect>
            <use xlink:href="#path-7" fill="black"></use>
        </mask>
        <circle id="path-9" cx="39.5" cy="39.5" r="39.5"></circle>
        <mask id="mask-11" maskContentUnits="userSpaceOnUse" maskUnits="objectBoundingBox" x="-2" y="-2" width="83" height="83">
            <rect x="-2" y="-2" width="83" height="83" fill="white"></rect>
            <use xlink:href="#path-9" fill="black"></use>
        </mask>
        <rect id="path-12" x="0" y="0" width="19" height="11"></rect>
        <mask id="mask-13" maskContentUnits="userSpaceOnUse" maskUnits="objectBoundingBox" x="-2" y="-2" width="23" height="15">
            <rect x="-2" y="-2" width="23" height="15" fill="white"></rect>
            <use xlink:href="#path-12" fill="black"></use>
        </mask>
        <polygon id="path-14" points="83 5.01679377e-14 41.3360539 41.8090207 -3.55271368e-14 -1.0658141e-14"></polygon>
    </defs>
    <g id="mockup" stroke="none" stroke-width="1" fill="none" fill-rule="evenodd">
        <g id="Empty-state" transform="translate(-254.000000, -137.000000)">
            <g id="Group-3" transform="translate(255.000000, 138.000000)">
                <g id="cloud1" stroke-linecap="round" stroke-width="2" stroke="#494E52">
                    <g id="Group">
                        <path d="M8.11044687,20.5961538 L19.4452555,20.5961538 C19.4452555,12.3437452 26.1560822,5.65384615 34.4343066,5.65384615 C36.8571665,5.65384615 39.1457618,6.22690839 41.1711412,7.24448358 C43.3884096,2.94283278 47.8841335,0 53.0693431,0 C58.3235026,0 62.8697179,3.02161742 65.0547845,7.41680349 C67.0132649,6.29522129 69.2836873,5.65384615 71.7043796,5.65384615 C77.5452282,5.65384615 82.5112048,9.38793684 84.331166,14.5920571 C85.8701026,13.0616228 87.9939108,12.1153846 90.3394161,12.1153846 C95.0378677,12.1153846 98.8467153,15.9123543 98.8467153,20.5961538 L110.594891,20.5961538" id="Combined-Shape" stroke-linejoin="round"></path>
                        <path d="M0.405109489,20.1923077 L4.45620438,20.1923077" id="Line"></path>
                    </g>
                    <path d="M5.40510949,25.8076923 L55,25.8076923" id="Line"></path>
                </g>
                <g id="cloud" transform="translate(14.000000, 50.000000)" stroke="#494E52" stroke-width="2" stroke-linecap="round">
                    <path d="M50.4051095,22.8076923 L70,22.8076923" id="Line-Copy"></path>
                    <path d="M80.4051095,22.8076923 L93,22.8076923" id="Line-Copy-2"></path>
                    <g id="Group-Copy-2" stroke-linejoin="round">
                        <path d="M0,20.5961538 L11.3348086,20.5961538 C11.3348086,12.3437452 18.0456354,5.65384615 26.3238597,5.65384615 C28.7467196,5.65384615 31.035315,6.22690839 33.0606943,7.24448358 C35.2779627,2.94283278 39.7736867,0 44.9588962,0 C50.2130557,0 54.759271,3.02161742 56.9443376,7.41680349 C58.902818,6.29522129 61.1732405,5.65384615 63.5939327,5.65384615 C69.4347813,5.65384615 74.400758,9.38793684 76.2207191,14.5920571 L86.4524663,14.5920571" id="Combined-Shape"></path>
                    </g>
                </g>
                <g id="cloud2" transform="translate(186.000000, 23.000000)" stroke="#494E52" stroke-width="2" stroke-linecap="round">
                    <path d="M31,25.8076923 L56,25.8076923" id="Line-Copy-3"></path>
                    <path d="M17,25.8076923 L24,25.8076923" id="Line-Copy-4"></path>
                    <g id="Group-Copy" transform="translate(43.500000, 10.500000) scale(-1, 1) translate(-43.500000, -10.500000) " stroke-linejoin="round">
                        <path d="M0,20.5961538 L11.3348086,20.5961538 C11.3348086,12.3437452 18.0456354,5.65384615 26.3238597,5.65384615 C28.7467196,5.65384615 31.035315,6.22690839 33.0606943,7.24448358 C35.2779627,2.94283278 39.7736867,0 44.9588962,0 C50.2130557,0 54.759271,3.02161742 56.9443376,7.41680349 C58.902818,6.29522129 61.1732405,5.65384615 63.5939327,5.65384615 C69.4347813,5.65384615 74.400758,9.38793684 76.2207191,14.5920571 L86.4524663,14.5920571" id="Combined-Shape"></path>
                    </g>
                </g>
                <g id="trees" transform="translate(77.000000, 166.000000)">
                    <path d="M0.405109489,25.8076923 C0.405109489,25.8076923 32.4332129,24.1959276 68.2025547,24.1959276 C103.971897,24.1959276 136,25.8076923 136,25.8076923" id="Line-Copy" stroke="#494E52" stroke-width="2" stroke-linecap="round"></path>
                    <g id="Group-10" transform="translate(121.000000, 6.000000)">
                        <g id="Group-9">
                            <g id="Triangle">
                                <use fill="#C7E7C8" fill-rule="evenodd" xlink:href="#path-1"></use>
                                <use stroke="#494E52" mask="url(#mask-2)" stroke-width="4" stroke-linecap="round" stroke-linejoin="round" xlink:href="#path-1"></use>
                            </g>
                            <polygon id="Triangle" fill="#E8F5E9" points="5.5 0 2.75 14.2058824 0 14.2058824"></polygon>
                        </g>
                        <path d="M5.5,11.1176471 L5.5,20.6911765" id="Line" stroke="#4A4E52" stroke-width="2" stroke-linecap="round" stroke-linejoin="round" transform="translate(5.500000, 16.058824) scale(-1, 1) translate(-5.500000, -16.058824) "></path>
                    </g>
                    <g id="Group-10-Copy" transform="translate(33.000000, 5.000000)">
                        <g id="Group-9">
                            <g id="Triangle">
                                <use fill="#C7E7C8" fill-rule="evenodd" xlink:href="#path-3"></use>
                                <use stroke="#494E52" mask="url(#mask-4)" stroke-width="4" stroke-linecap="round" stroke-linejoin="round" xlink:href="#path-3"></use>
                            </g>
                            <polygon id="Triangle" fill="#E8F5E9" points="5.5 0 2.75 14.2058824 0 14.2058824"></polygon>
                        </g>
                        <path d="M5.5,11.1176471 L5.5,20.6911765" id="Line" stroke="#4A4E52" stroke-width="2" stroke-linecap="round" stroke-linejoin="round" transform="translate(5.500000, 16.058824) scale(-1, 1) translate(-5.500000, -16.058824) "></path>
                    </g>
                    <g id="Group-10-Copy-2" transform="translate(5.000000, 8.000000)">
                        <g id="Group-9">
                            <g id="Triangle">
                                <use fill="#C7E7C8" fill-rule="evenodd" xlink:href="#path-5"></use>
                                <use stroke="#494E52" mask="url(#mask-6)" stroke-width="4" stroke-linecap="round" stroke-linejoin="round" xlink:href="#path-5"></use>
                            </g>
                            <polygon id="Triangle" fill="#E8F5E9" points="5 0 2.5 12.8529412 0 12.8529412"></polygon>
                        </g>
                        <path d="M5,10.0588235 L5,18.7205882" id="Line" stroke="#4A4E52" stroke-width="2" stroke-linecap="round" stroke-linejoin="round" transform="translate(5.000000, 14.529412) scale(-1, 1) translate(-5.000000, -14.529412) "></path>
                    </g>
                    <g id="Group-10" transform="translate(95.000000, 0.000000)">
                        <g id="Group-9">
                            <g id="Triangle">
                                <use fill="#C7E7C8" fill-rule="evenodd" xlink:href="#path-7"></use>
                                <use stroke="#494E52" mask="url(#mask-8)" stroke-width="4" stroke-linecap="round" stroke-linejoin="round" xlink:href="#path-7"></use>
                            </g>
                            <polygon id="Triangle" fill="#E8F5E9" points="7 0 3.5 18.9411765 0 18.9411765"></polygon>
                        </g>
                        <path d="M7,14.8235294 L7,27.5882353" id="Line" stroke="#4A4E52" stroke-width="2" stroke-linecap="round" stroke-linejoin="round" transform="translate(7.000000, 21.411765) scale(-1, 1) translate(-7.000000, -21.411765) "></path>
                    </g>
                </g>
                <g id="balloon" transform="translate(104.000000, 74.000000)">
                    <g id="ballooncircle" transform="translate(2.000000, 0.000000)">
                        <mask id="mask-10" fill="white">
                            <use xlink:href="#path-9"></use>
                        </mask>
                        <g id="Mask">
                            <use fill="#B1E5FD" fill-rule="evenodd" xlink:href="#path-9"></use>
                            <use stroke="#4A4E52" mask="url(#mask-11)" stroke-width="4" xlink:href="#path-9"></use>
                        </g>
                        <circle id="Oval" fill="#E0F5FF" mask="url(#mask-10)" cx="60.5" cy="39.5" r="51.5"></circle>
                    </g>
                    <g id="lines" transform="translate(25.000000, 80.000000)" stroke="#4A4E52" stroke-width="2" stroke-linecap="round" stroke-linejoin="round">
                        <path d="M0,0 L10.5,25.5" id="Line"></path>
                        <path d="M22,0 L32.5,25.5" id="Line" transform="translate(27.500000, 13.000000) scale(-1, 1) translate(-27.500000, -13.000000) "></path>
                        <path d="M16.5,4 L16.5,25.5" id="Line" transform="translate(16.500000, 15.000000) scale(-1, 1) translate(-16.500000, -15.000000) "></path>
                    </g>
                    <g id="basket" transform="translate(32.000000, 110.000000)">
                        <g id="Rectangle-6">
                            <use fill="#BCAAA4" fill-rule="evenodd" xlink:href="#path-12"></use>
                            <use stroke="#494E52" mask="url(#mask-13)" stroke-width="4" stroke-linecap="round" stroke-linejoin="round" xlink:href="#path-12"></use>
                        </g>
                        <rect id="Rectangle-6" fill="#8E6E62" x="0" y="0" width="3" height="11"></rect>
                        <rect id="Rectangle-6-Copy" fill="#D0BFB9" style="mix-blend-mode: lighten;" x="16" y="0" width="3" height="11"></rect>
                    </g>
                    <g id="wifi" transform="translate(0.000000, 18.000000)">
                        <mask id="mask-15" fill="white">
                            <use xlink:href="#path-14"></use>
                        </mask>
                        <g id="Mask"></g>
                        <path d="M41.2362205,78.8471338 C61.1945737,78.8471338 77.3740157,62.4385124 77.3740157,42.1974522 C77.3740157,21.956392 61.1945737,5.5477707 41.2362205,5.5477707 C21.2778673,5.5477707 5.0984252,21.956392 5.0984252,42.1974522 C5.0984252,62.4385124 21.2778673,78.8471338 41.2362205,78.8471338 Z M41.2362205,72.6942675 C57.8439013,72.6942675 71.3070866,59.0403782 71.3070866,42.1974522 C71.3070866,25.3545262 57.8439013,11.7006369 41.2362205,11.7006369 C24.6285397,11.7006369 11.1653543,25.3545262 11.1653543,42.1974522 C11.1653543,59.0403782 24.6285397,72.6942675 41.2362205,72.6942675 Z M41.2362205,63.5987261 C52.8907333,63.5987261 62.3385827,54.0170494 62.3385827,42.1974522 C62.3385827,30.377855 52.8907333,20.7961783 41.2362205,20.7961783 C29.5817076,20.7961783 20.1338583,30.377855 20.1338583,42.1974522 C20.1338583,54.0170494 29.5817076,63.5987261 41.2362205,63.5987261 Z M41.2362205,57.4458599 C49.5400609,57.4458599 56.2716535,50.6189152 56.2716535,42.1974522 C56.2716535,33.7759892 49.5400609,26.9490446 41.2362205,26.9490446 C32.9323801,26.9490446 26.2007874,33.7759892 26.2007874,42.1974522 C26.2007874,50.6189152 32.9323801,57.4458599 41.2362205,57.4458599 Z M41.2362205,48.3503185 C44.5868929,48.3503185 47.3031496,45.5955864 47.3031496,42.1974522 C47.3031496,38.799318 44.5868929,36.044586 41.2362205,36.044586 C37.885548,36.044586 35.1692913,38.799318 35.1692913,42.1974522 C35.1692913,45.5955864 37.885548,48.3503185 41.2362205,48.3503185 Z" id="Combined-Shape" fill="#868E98" style="mix-blend-mode: darken;" mask="url(#mask-15)"></path>
                    </g>
                    <g id="x" transform="translate(64.000000, 10.000000)">
                        <circle id="Oval-3" fill="#F6A623" cx="12.5" cy="12.5" r="12.5"></circle>
                        <path d="M7.5,7.5 L17.5,17.5" id="Line" stroke="#FFFFFF" stroke-width="2" stroke-linecap="round"></path>
                        <path d="M7.5,7.5 L17.5,17.5" id="Line" stroke="#FFFFFF" stroke-width="2" stroke-linecap="round" transform="translate(12.500000, 12.500000) scale(-1, 1) translate(-12.500000, -12.500000) "></path>
                    </g>
                </g>
            </g>
        </g>
    </g>
</svg>